<svg xmlns="http://www.w3.org/2000/svg" viewBox="0 0 64 64"><defs><style>.cls-1{fill:#d1e7ff;}.cls-2{fill:#8bc4ff;}.cls-3{fill:#2e58ff;}</style></defs><title>Bubble FAQ</title><g id="Bubble_FAQ" data-name="Bubble FAQ"><rect class="cls-1" x="16" y="5" width="46" height="39" rx="4"/><path class="cls-2" d="M54,17V47a4,4,0,0,1-4,4H18L9,59V53a2,2,0,0,0-2-2H6a4,4,0,0,1-4-4V17a4,4,0,0,1,4-4H50A4,4,0,0,1,54,17Z"/><rect class="cls-2" x="38" y="26" width="8" height="10" rx="2"/><polyline class="cls-2" points="10 38 10 26 17 26"/><polyline class="cls-2" points="22 38 27 26 32 38"/><line class="cls-2" x1="42" y1="36" x2="44" y2="38"/><path class="cls-3" d="M58,3H20a6,6,0,0,0-6,6v2H6a6,6,0,0,0-6,6V47a6,6,0,0,0,6,6H7v6a2,2,0,0,0,3.33,1.49L18.76,53H50a6,6,0,0,0,6-6V46h2a6,6,0,0,0,6-6V9A6,6,0,0,0,58,3ZM52,47a2,2,0,0,1-2,2H18c-1.09,0-1,.24-7,5.55V53a4,4,0,0,0-4-4H6a2,2,0,0,1-2-2V17a2,2,0,0,1,2-2H50a2,2,0,0,1,2,2Zm8-7a2,2,0,0,1-2,2H56V17a6,6,0,0,0-6-6H18V9a2,2,0,0,1,2-2H58a2,2,0,0,1,2,2Z"/><path class="cls-3" d="M44,24H40a4,4,0,0,0-4,4v6a4,4,0,0,0,4,4h1.17l1.42,1.41a2,2,0,0,0,3.34-1.91A4,4,0,0,0,48,34V28A4,4,0,0,0,44,24Zm-4,4h4v6H40Z"/><path class="cls-3" d="M18,24.27c-.63-.37-.45-.27-8-.27a2,2,0,0,0-2,2V38a2,2,0,0,0,4,0V34h3a2,2,0,0,0,0-4H12V28c5.25,0,5.37.1,6-.27A2,2,0,0,0,18,24.27Z"/><path class="cls-3" d="M28.85,25.23a2,2,0,0,0-3.7,0l-5,12a2,2,0,1,0,3.7,1.54l.32-.77h5.66l.32.77a2,2,0,0,0,3.7-1.54Zm-3,8.77L27,31.2,28.17,34Z"/></g></svg>